<svg xmlns="http://www.w3.org/2000/svg" viewBox="0 0 224.8 44.86">
    <g fill="#ffffff" id="Layer_1" data-name="Layer 1">
        <path d="M0,40.24V10.39H2.57c0,4.22,0,8.76,0,13,7.58-6,15.16-12.26,22.74-18.24L26.91,7,4.07,25.42,26.48,43.14l-1.39,1.72L2.57,27.25v13c-.86.11-1.72-.11-2.57,0Z"/>
        <path d="M7.59,24.23c9.12,0,18.41,0,27.53,0-.31-6.48-3.61-11.49-8.87-15.5l1.68-1.45C40.55,17,40.4,33.92,27.46,42.8l-1.85-1.51c5.7-3.77,8.44-9,9.5-15-9.18,0-18.35,0-27.53,0,0-.68,0-1.41,0-2.09Z"/>
        <path d="M45.4,38.53v.87H49a2.22,2.22,0,0,1-.87,1.52,3.32,3.32,0,0,1-2,.51q-2.22,0-2.62-1.55L41.89,40a2.67,2.67,0,0,0,1.41,1.65,6.2,6.2,0,0,0,3,.63,5.2,5.2,0,0,0,3.4-.84,3,3,0,0,0-.11-4.8,5.94,5.94,0,0,0-3.42-.87,6.11,6.11,0,0,0-2.8.55,2.34,2.34,0,0,0-1.3,1.43l1.7.16q.43-1.27,2.46-1.27a3.26,3.26,0,0,1,1.91.52A2.11,2.11,0,0,1,49,38.53Zm20.25-2.6h8.13v6.22H72V36.8H67.4v3.1a5.57,5.57,0,0,1-.12,1.43,1.16,1.16,0,0,1-.64.6,3.53,3.53,0,0,1-1.52.26c-.41,0-.88,0-1.41,0v-.88h.77a3.18,3.18,0,0,0,.78-.07.49.49,0,0,0,.31-.21,3.1,3.1,0,0,0,.08-1v-4.1Zm29.72,4.22,1.81.13a3,3,0,0,1-1.58,1.48,7.2,7.2,0,0,1-3,.53A6.66,6.66,0,0,1,89,41.45a2.64,2.64,0,0,1-1.33-2.36,2.75,2.75,0,0,1,1.34-2.44,6.32,6.32,0,0,1,3.48-.87,6.12,6.12,0,0,1,3.38.85A2.69,2.69,0,0,1,97.24,39q0,.1,0,.28h-7.7a2,2,0,0,0,1,1.57,4.54,4.54,0,0,0,3.8.24,2.34,2.34,0,0,0,1.08-1Zm-5.74-1.71h5.76a1.68,1.68,0,0,0-.66-1.18,3.59,3.59,0,0,0-2.17-.61,3.92,3.92,0,0,0-2,.49,1.69,1.69,0,0,0-.91,1.3Zm21.64-2.51H113v2.69a2.54,2.54,0,0,0,1.17-.19,4.28,4.28,0,0,0,1-1.13,4.49,4.49,0,0,1,.84-1,1.84,1.84,0,0,1,.74-.32,7.6,7.6,0,0,1,1.34-.08h.35v.87h-.49a2,2,0,0,0-.88.12,3,3,0,0,0-.62.77,3.11,3.11,0,0,1-.73.84,3.33,3.33,0,0,1-1,.43,4.15,4.15,0,0,1,2.22,1.27l1.91,1.93H116.9L115,40.22a3.5,3.5,0,0,0-1-.76,2.56,2.56,0,0,0-1-.18v2.88h-1.75V35.93Zm19.67,0h8.39v.87H136v5.35h-1.74V36.8h-3.33v-.87Zm22,8.61V35.93h1.59v.81a3.84,3.84,0,0,1,1.27-.71,5.45,5.45,0,0,1,1.72-.24,6.19,6.19,0,0,1,2.33.41,3.27,3.27,0,0,1,1.53,1.16,2.86,2.86,0,0,1-.05,3.36,3.54,3.54,0,0,1-1.65,1.17,6.47,6.47,0,0,1-2.28.41,5.15,5.15,0,0,1-1.57-.22,3.79,3.79,0,0,1-1.14-.56v3Zm1.58-5.46a2,2,0,0,0,.81,1.78,3.29,3.29,0,0,0,2,.57,3.34,3.34,0,0,0,2-.6,2.11,2.11,0,0,0,.83-1.84,2.06,2.06,0,0,0-.81-1.78,3.2,3.2,0,0,0-1.94-.59,3.27,3.27,0,0,0-2,.63,2.13,2.13,0,0,0-.86,1.83Zm21.39-3.15h1.75v4.75l4.85-4.75h1.89v6.22H182.6V37.43l-4.85,4.72h-1.89V35.93Zm23,0h1.75v2.69a2.54,2.54,0,0,0,1.17-.19,4.29,4.29,0,0,0,1-1.13,4.47,4.47,0,0,1,.84-1,1.84,1.84,0,0,1,.74-.32,7.6,7.6,0,0,1,1.34-.08H206v.87h-.49a2,2,0,0,0-.88.12,2.94,2.94,0,0,0-.62.77,3.11,3.11,0,0,1-.73.84,3.33,3.33,0,0,1-1,.43,4.15,4.15,0,0,1,2.22,1.27l1.91,1.93h-1.92l-1.87-1.93a3.5,3.5,0,0,0-1-.76,2.56,2.56,0,0,0-1-.18v2.88h-1.75V35.93Z"/>
        <path d="M23.93.78H49.37V13.2h3C56.69,9.06,60.88,4.92,65.25.78h7.48L57.54,15.23,73.76,32.47l-7.82.06L52.32,17.73h-3c0,4.91,0,9.83,0,14.74l-7.65.06C41.63,12.19,34.22,4.08,23.93.78Z"/>
        <path d="M85.72,33.18C66.08,33.18,66.3,0,86,0s19.58,33.18-.28,33.18Zm.05-4.68c11.1,0,11.08-23.83.13-23.83q-8.05,0-8,12c0,5.21,1.46,11.83,7.91,11.83Zm94-5.21L167.42.5h6.77l8.55,16.29,7-16.29h5.88L184.8,24.71c-3,6.69-6,8-13,8v-5c4.48,0,6-.14,7.91-4.39Zm25.11,9.38h-6.26V.5C206.48.5,224.8-2.29,224.8,10c0,11.06-12.36,9.88-19.93,9.88V32.68Zm0-17.73c4.06,0,13.36,1.6,13.36-4.84s-9.3-4.8-13.36-4.8V15Z"/>
        <path d="M136.51.79h5.93V13.22h3C149.77,9.08,154,4.93,158.32.79h7.48L150.62,15.25l16.23,17.24-7.82.06L145.4,17.74h-3c0,4.91,0,9.83,0,14.74l-5.89,0,0-31.74Z"/>
        <polygon points="130.17 32.71 123.92 32.71 123.92 18.73 110.65 18.73 110.65 32.71 104.39 32.71 104.39 0.53 110.65 0.53 110.65 13.76 123.92 13.76 123.92 0.53 130.17 0.53 130.17 32.71 130.17 32.71"/>
    </g>
</svg>