<svg xmlns="http://www.w3.org/2000/svg" viewBox="0 0 421.12 118.3">
    <g fill="#ffffff">
        <path d="M38.36,88.34H23a22.28,22.28,0,0,1-9-1.82,22.62,22.62,0,0,1-7.28-5,24.07,24.07,0,0,1-4.9-7.35,22.28,22.28,0,0,1-1.82-9V4.2L16.8,0V26.74h9.8l4.2,16.8h-14v21.7a6.08,6.08,0,0,0,1.82,4.48A5.92,5.92,0,0,0,23,71.54h11.2Z"/>
        <path d="M111.44,18.2V88.34H94.64v-35A20.08,20.08,0,0,0,74.48,33.18,20.19,20.19,0,0,0,60.2,39.06a19.44,19.44,0,0,0-5.88,14.28A19.28,19.28,0,0,0,60.2,67.48a18.09,18.09,0,0,0,6.51,4.41,20.88,20.88,0,0,0,7.77,1.47A19.46,19.46,0,0,0,82,72l6,15a33.11,33.11,0,0,1-15,3.22,34.85,34.85,0,0,1-14.21-2.87A34.39,34.39,0,0,1,47.6,79.38a36.46,36.46,0,0,1-7.42-11.76,40,40,0,0,1,0-28.7A36.47,36.47,0,0,1,47.6,27.16a34.42,34.42,0,0,1,11.27-7.91,34.85,34.85,0,0,1,14.21-2.87,33,33,0,0,1,12.18,2.1,36.66,36.66,0,0,1,9.38,5.32V18.2Z"/>
        <path d="M193.06,81.34a36,36,0,0,1-2.87,14.28,37,37,0,0,1-7.91,11.76,38,38,0,0,1-11.76,8,37,37,0,0,1-26.32,1,37.22,37.22,0,0,1-10.36-5.6L146,98.7a18.64,18.64,0,0,0,10.08,2.8,18.93,18.93,0,0,0,14.28-6,19.27,19.27,0,0,0,5.88-14.14V53.2a20.06,20.06,0,0,0-5.88-14.28A19.44,19.44,0,0,0,156.1,33,20.08,20.08,0,0,0,135.94,53.2a19.44,19.44,0,0,0,5.88,14.28,20.05,20.05,0,0,0,14.28,5.88,19.46,19.46,0,0,0,7.56-1.4L170,87.64a36.24,36.24,0,0,1-13.58,2.52h-.28a36,36,0,0,1-14.28-2.87,37,37,0,0,1-11.76-7.91,38,38,0,0,1-8-11.76,35.56,35.56,0,0,1-2.94-14.42,40.74,40.74,0,0,1,2.52-14.42A36.44,36.44,0,0,1,128.73,27a32.51,32.51,0,0,1,10.92-7.91,33.54,33.54,0,0,1,13.93-2.87,35.5,35.5,0,0,1,12.88,2.17,39.5,39.5,0,0,1,9.8,5.39V18.34h16.8Z"/>
        <path d="M227.15,18.34a28.72,28.72,0,0,1,11.27-2.1V33a19.44,19.44,0,0,0-14.28,5.88,20.06,20.06,0,0,0-5.88,14.28V88.34h-16.8V18.2h16.8v5.46A35.93,35.93,0,0,1,227.15,18.34Z"/>
        <path d="M295,61.74H258.3a17.38,17.38,0,0,0,4.06,5.74,19.65,19.65,0,0,0,6.58,4.41,20.36,20.36,0,0,0,7.7,1.47,19.63,19.63,0,0,0,10.22-2.66l17.5,7a35.29,35.29,0,0,1-12.18,9.17,37.07,37.07,0,0,1-49.63-19.25,37.31,37.31,0,0,1,0-28.7,36.9,36.9,0,0,1,19.67-19.67,37.66,37.66,0,0,1,28.84,0,36.89,36.89,0,0,1,19.67,19.67,36.35,36.35,0,0,1,2.87,14.42,34.63,34.63,0,0,1-1,8.4ZM276.64,33.18a20,20,0,0,0-14.28,5.88,19,19,0,0,0-4.06,5.88H295a19,19,0,0,0-4.06-5.88A19.44,19.44,0,0,0,276.64,33.18Z"/>
        <path d="M374.5,61.74H337.82a17.38,17.38,0,0,0,4.06,5.74,19.65,19.65,0,0,0,6.58,4.41,20.36,20.36,0,0,0,7.7,1.47,19.63,19.63,0,0,0,10.22-2.66l17.5,7a35.29,35.29,0,0,1-12.18,9.17,37.07,37.07,0,0,1-49.63-19.25,37.31,37.31,0,0,1,0-28.7,36.9,36.9,0,0,1,19.67-19.67,37.66,37.66,0,0,1,28.84,0,36.89,36.89,0,0,1,19.67,19.67,36.35,36.35,0,0,1,2.87,14.42,34.63,34.63,0,0,1-1,8.4ZM356.16,33.18a20,20,0,0,0-14.28,5.88,19,19,0,0,0-4.06,5.88H374.5a19,19,0,0,0-4.06-5.88A19.44,19.44,0,0,0,356.16,33.18Z"/>
        <path d="M404.32,88.34V71.54h16.8v16.8Z"/>
    </g>
</svg>